<svg width="1652" height="244" viewBox="0 0 1652 244" fill="none" xmlns="http://www.w3.org/2000/svg">
<path d="M1652 232.373L1651.98 100.432C1651.98 95.9057 1650.44 91.8149 1647.52 88.5866L1647.37 88.4223C1646.98 87.9295 1646.55 87.453 1646.09 86.993C1645.53 86.4344 1644.92 85.9087 1644.15 85.3255C1641.02 82.7215 1637.11 81.3497 1632.85 81.3497L1500.76 81.3333V114.955L1594.51 114.963L1502.92 206.448L1525.61 229.128L1526.67 230.286L1618.37 138.678L1618.32 232.381H1651.98L1652 232.373Z" fill="url(#paint0_linear_3809_28)"/>
<path d="M123.981 177.787H159.401C153.721 213.408 122.31 238.146 82.8708 238.146C35.7547 238.146 0 202.854 0 156.669C0 110.484 35.7547 75.2012 82.8708 75.2012C122.301 75.2012 153.712 99.9384 159.401 135.56H123.981C119.637 118.079 103.931 106.205 82.8796 106.205C53.808 106.205 34.761 128.634 34.761 156.669C34.761 184.705 53.808 207.133 82.8796 207.133C103.931 207.133 119.637 195.259 123.981 177.778V177.787Z" fill="white"/>
<path d="M278.018 75.8699V108.193C252.957 109.183 233.91 118.418 219.875 136.559V234.197H185.123V79.1682H219.875V100.277C234.244 84.7753 253.959 75.8699 278.018 75.8699Z" fill="white"/>
<path d="M558.728 145.464V234.197H524.31V145.464C524.31 118.088 509.607 106.214 487.219 106.214C471.848 106.214 457.145 111.822 445.449 127.324C446.452 132.271 446.786 137.878 446.786 143.485V234.197H412.368V143.485C412.368 116.109 397.665 106.214 377.281 106.214C360.908 106.214 346.205 112.811 334.844 128.313V234.197H300.091V79.1684H334.844V92.3616C346.539 81.807 360.574 75.2104 381.291 75.2104C403.68 75.2104 421.724 82.7965 433.42 97.6389C448.791 82.7965 466.501 75.2104 489.558 75.2104C530.659 75.2104 558.737 99.6178 558.737 145.464H558.728Z" fill="white"/>
<path d="M753.198 156.348C753.198 201.864 717.444 238.146 673.335 238.146C653.286 238.146 636.244 232.209 623.212 221.984V234.188H588.459V0H623.212V91.0416C636.244 81.1467 653.286 75.2098 673.335 75.2098C717.444 75.2098 753.198 111.491 753.198 156.348ZM718.446 156.348C718.446 128.972 697.394 106.214 668.323 106.214C650.947 106.214 634.907 111.821 623.212 127.983V185.043C634.907 201.205 650.947 207.142 668.323 207.142C697.394 207.142 718.446 184.054 718.446 156.348Z" fill="white"/>
<path d="M939.656 156.678C939.656 204.174 904.904 238.155 856.108 238.155C807.313 238.155 772.56 204.182 772.56 156.678C772.56 109.174 807.313 75.2104 856.108 75.2104C904.904 75.2104 939.656 109.183 939.656 156.678ZM904.904 156.678C904.904 127.324 884.52 106.214 856.117 106.214C827.714 106.214 807.33 127.324 807.33 156.678C807.33 186.033 827.714 207.142 856.117 207.142C884.52 207.142 904.904 185.703 904.904 156.678Z" fill="white"/>
<path d="M1116.43 147.773V234.197H1081.67V149.752C1081.67 121.387 1066.3 106.214 1040.91 106.214C1025.87 106.214 1009.5 114.46 997.131 129.632V234.197H962.379V79.1684H997.131V93.0212C1010.83 81.4772 1027.87 75.2104 1047.92 75.2104C1088.69 75.2104 1116.43 102.916 1116.43 147.773Z" fill="white"/>
<path d="M1295.53 79.168V234.197H1261.12V219.024C1247.42 231.228 1230.37 238.155 1209.99 238.155C1169.22 238.155 1141.82 209.459 1141.82 164.932V79.168H1176.24V162.953C1176.24 191.319 1191.95 207.151 1217.01 207.151C1232.38 207.151 1248.42 198.575 1261.12 182.743V79.168H1295.53Z" fill="white"/>
<path d="M1392.43 210.119C1412.81 210.119 1426.85 203.522 1426.85 191.319C1426.85 182.083 1419.16 175.487 1405.8 173.178L1371.04 167.241C1346.98 163.283 1324.6 151.409 1324.6 123.374C1324.6 93.3591 1350.99 74.8887 1390.09 74.8887C1420.5 74.8887 1455.59 85.1134 1458.93 125.682H1426.85C1425.18 108.861 1410.14 102.265 1390.09 102.265C1370.04 102.265 1359.01 109.521 1359.01 120.405C1359.01 128.651 1365.03 136.567 1383.41 139.535L1412.81 144.153C1436.54 148.441 1459.93 158.665 1459.93 188.68C1459.93 221.333 1430.86 238.154 1391.43 238.154C1354.34 238.154 1322.59 223.642 1318.58 182.743L1350.66 183.073C1354.34 202.203 1368.7 210.119 1392.43 210.119Z" fill="white"/>
<defs>
<linearGradient id="paint0_linear_3809_28" x1="1500.76" y1="232.381" x2="1651.81" y2="81.1416" gradientUnits="userSpaceOnUse">
<stop stop-color="#FDA92B"/>
<stop offset="0.17" stop-color="#FDA92B"/>
<stop offset="0.36" stop-color="#FD972D"/>
<stop offset="0.54" stop-color="#FD8330"/>
<stop offset="0.66" stop-color="#FC7E31"/>
<stop offset="0.8" stop-color="#FC7035"/>
<stop offset="0.94" stop-color="#FC5A3C"/>
<stop offset="0.99" stop-color="#FC5140"/>
</linearGradient>
</defs>
</svg>
